<?xml version="1.0"?>
<svg xmlns="http://www.w3.org/2000/svg" height="512px" viewBox="-68 0 395 395.94667" width="512px" class=""><g><path d="m150.015625 329.425781c-8.480469-10.261719-2.617187-26.511719 10.625-27.859375.660156-.066406 1.324219-.097656 2-.097656 6.808594 0 12.800781 3.480469 16.304687 8.757812 3.503907-5.277343 9.496094-8.757812 16.304688-8.757812.675781 0 1.34375.03125 2 .097656 13.242188 1.347656 19.105469 17.597656 10.628906 27.859375l-28.929687 35.015625zm0 0" fill="#f97da3" /><path d="m178.945312 371.269531c-2.03125 0-3.964843-.910156-5.257812-2.476562l-28.933594-35.015625c0-.003906-.007812-.003906-.007812-.003906-5.691406-6.902344-7.097656-16.382813-3.671875-24.742188 3.3125-8.0625 10.367187-13.390625 18.875-14.253906 6.8125-.675782 13.710937 1.347656 19 5.503906 5.273437-4.160156 12.324219-6.199219 18.992187-5.503906 8.507813.863281 15.566406 6.195312 18.878906 14.257812 3.425782 8.359375 2.019532 17.835938-3.6875 24.734375l-28.925781 35.019531c-1.292969 1.570313-3.226562 2.480469-5.261719 2.480469zm-23.664062-46.1875 23.664062 28.644531 23.667969-28.644531c2.964844-3.597656 2.757813-7.96875 1.574219-10.855469-.65625-1.597656-2.714844-5.367187-7.636719-5.867187-4.503906-.507813-9.296875 1.691406-11.917969 5.640625-1.257812 1.90625-3.394531 3.054688-5.6875 3.054688-2.285156 0-4.417968-1.144532-5.6875-3.046876-2.617187-3.945312-7.277343-6.105468-11.929687-5.648437-4.914063.496094-6.96875 4.265625-7.621094 5.863281-1.1875 2.886719-1.398437 7.261719 1.574219 10.859375zm0 0" class=""/><path d="m253.058594 395.945312c-3.773438 0-6.824219-3.054687-6.824219-6.824218v-76.179688c0-18.496094-8.988281-35.953125-24.035156-46.703125l-66.898438-47.785156h-50.242187l-66.898438 47.785156c-15.046875 10.75-24.035156 28.207031-24.035156 46.703125v76.179688c0 3.769531-3.050781 6.824218-6.824219 6.824218-3.773437 0-6.828125-3.054687-6.828125-6.824218v-76.179688c0-22.894531 11.121094-44.507812 29.753906-57.816406l68.679688-49.054688c1.15625-.828124 2.546875-1.269531 3.96875-1.269531h54.613281c1.417969 0 2.8125.441407 3.964844 1.269531l68.679687 49.054688c18.632813 13.308594 29.753907 34.921875 29.753907 57.816406v76.179688c0 3.769531-3.054688 6.824218-6.828125 6.824218zm0 0" class=""/><path d="m171.765625 6.828125h-123.503906v122.878906c0 35.652344 22.816406 65.902344 54.613281 77.15625v11.589844c0 15.082031 12.222656 27.308594 27.304688 27.308594 15.082031 0 27.308593-12.226563 27.308593-27.308594v-11.589844c31.796875-11.253906 54.613281-41.503906 54.613281-77.15625v-82.546875c0-22.273437-18.058593-40.332031-40.335937-40.332031zm0 0" fill="#ffdd95" class="active-path" style="fill:#FFDD95"/><path d="m130.179688 252.585938c-18.820313 0-34.132813-15.3125-34.132813-34.132813v-6.902344c-32.859375-13.707031-54.613281-46-54.613281-81.84375v-122.878906c0-3.773437 3.054687-6.828125 6.828125-6.828125h123.503906c26.007813 0 47.160156 21.15625 47.160156 47.160156v82.546875c0 35.84375-21.753906 68.136719-54.613281 81.84375v6.902344c0 18.820313-15.3125 34.132813-34.132812 34.132813zm-75.09375-238.933594v116.054687c0 31.699219 20.121093 60.121094 50.066406 70.722657 2.726562.964843 4.546875 3.542968 4.546875 6.433593v11.589844c0 11.292969 9.1875 20.480469 20.480469 20.480469 11.292968 0 20.480468-9.1875 20.480468-20.480469v-11.585937c0-2.894532 1.820313-5.46875 4.546875-6.4375 29.945313-10.601563 50.066407-39.023438 50.066407-70.722657v-82.546875c0-18.476562-15.035157-33.507812-33.507813-33.507812zm0 0" class=""/></g> </svg>
